# xmcd
#
# Track frame offsets:
#	150
#	18448
#	40227
#	63354
#	82012
#	100438
#	124070
#	142758
#	158610
#	177536
#	196347
#	215776
#	234354
#	255029
#	273530
#	295813
#	320394
#	338708
#
# Disc length: 4707 seconds
#
# Revision: 1
# Processed by: cddbd v1.5.2PL0 Copyright (c) Steve Scherf et al.
# Submitted via: audiograbber 1.83.01
#
DISCID=fe126112
DTITLE=En Vogue - Don't Let Go (The Very Best Of) (Disc2)
DYEAR=2010
DGENRE=R&B
TTITLE0=Don't Let Go (Love)
TTITLE1=Whatta Man (With Salt-n-Pepa)
TTITLE2=Give It Up Or Turn It Loose
TTITLE3=Whatever
TTITLE4=Too Gone, Too Long
TTITLE5=Damn I Wanna Be Your Lover
TTITLE6=What a Difference a Day Makes
TTITLE7=You're All I Need
TTITLE8=No Fool, No More
TTITLE9=Riddle
TTITLE10=Love You Crazay
TTITLE11=Falling In Love
TTITLE12=Number One Man
TTITLE13=Those Dogs
TTITLE14=Runaway Love (Feat. FMob) (Extended Version)
TTITLE15=Hold On (Hip Hop Remix)
TTITLE16=Riddle (Red Zone Remix Edit)
TTITLE17=Does Anybody Hear Me
EXTD=
EXTT0=
EXTT1=
EXTT2=
EXTT3=
EXTT4=
EXTT5=
EXTT6=
EXTT7=
EXTT8=
EXTT9=
EXTT10=
EXTT11=
EXTT12=
EXTT13=
EXTT14=
EXTT15=
EXTT16=
EXTT17=
PLAYORDER=
